<?xml version="1.0" standalone="no"?>
<!DOCTYPE svg PUBLIC "-//W3C//DTD SVG 20010904//EN"
 "http://www.w3.org/TR/2001/REC-SVG-20010904/DTD/svg10.dtd">
<svg version="1.0" xmlns="http://www.w3.org/2000/svg"
 width="357.000000pt" height="357.000000pt" viewBox="0 0 357.000000 357.000000"
 preserveAspectRatio="xMidYMid meet">
<metadata>
Created by potrace 1.14, written by Peter Selinger 2001-2017
</metadata>
<g transform="translate(0.000000,357.000000) scale(0.100000,-0.100000)"
fill="#000000" stroke="none">
<path d="M1530 2845 c-117 -20 -130 -22 -210 -44 -86 -23 -206 -71 -265 -105
-74 -44 -141 -136 -132 -182 3 -18 0 -24 -14 -24 -21 0 -204 -86 -217 -103
-18 -22 -19 -52 -2 -87 26 -58 22 -65 -73 -115 -125 -65 -200 -112 -345 -217
-70 -51 -129 -94 -132 -98 -3 -3 -28 -23 -57 -44 -28 -21 -59 -53 -68 -70 -16
-29 -16 -35 -2 -67 l15 -36 101 1 c55 1 101 -1 101 -2 0 -2 -18 -24 -40 -49
-86 -98 -118 -206 -88 -294 44 -129 241 -299 452 -391 88 -38 236 -87 296 -98
25 -4 80 -17 122 -28 42 -12 96 -24 120 -27 23 -4 46 -8 49 -11 9 -5 129 -23
214 -32 96 -10 834 -9 920 1 213 25 518 99 693 168 43 17 97 38 122 46 25 8
78 30 118 49 40 19 74 34 76 34 13 0 183 106 211 132 61 55 75 87 75 167 0 54
-5 82 -21 114 -32 61 -92 137 -146 183 -141 120 -410 262 -558 295 -30 7 -55
15 -55 18 0 11 61 206 96 311 60 177 65 206 51 301 -5 28 -64 86 -129 124 -85
50 -308 129 -421 149 -118 21 -150 27 -174 33 -54 12 -605 10 -683 -2z"/>
</g>
</svg>
